<svg width="71" height="18" viewBox="0 0 71 18" fill="none" xmlns="http://www.w3.org/2000/svg">
<g clip-path="url(#clip0_5567_6856)">
<g clip-path="url(#clip1_5567_6856)">
<path d="M21.3639 2.32102C21.1068 2.64517 20.7783 2.90567 20.4042 3.0823C20.03 3.25893 19.6201 3.34694 19.2064 3.33949C19.1799 2.9343 19.2346 2.52789 19.3671 2.14408C19.4997 1.76026 19.7074 1.40675 19.9783 1.10423C20.5227 0.471968 21.2915 0.0760233 22.1224 0C22.183 0.841752 21.9139 1.67408 21.372 2.32102M22.1171 3.49628C20.9271 3.42659 19.9126 4.16632 19.3431 4.16632C18.7736 4.16632 17.9038 3.52442 16.9631 3.54184C16.3478 3.55747 15.7474 3.73425 15.2219 4.05453C14.6963 4.37481 14.2639 4.82738 13.968 5.36703C12.6815 7.57549 13.633 10.8466 14.8753 12.6397C15.4837 13.5308 16.2153 14.5064 17.1695 14.4729C18.0767 14.4394 18.4359 13.8846 19.5334 13.8846C20.6309 13.8846 20.9552 14.4729 21.9134 14.4582C22.9064 14.4407 23.5295 13.567 24.1393 12.6772C24.5681 12.048 24.9027 11.3595 25.1323 10.6336C24.5593 10.3841 24.0711 9.97352 23.7271 9.4518C23.3831 8.93008 23.1981 8.31967 23.1945 7.69476C23.2031 7.14057 23.3515 6.59753 23.6258 6.11591C23.9001 5.6343 24.2915 5.22968 24.7637 4.93955C24.4623 4.51116 24.0658 4.1584 23.6052 3.90893C23.1446 3.65946 22.6325 3.52005 22.109 3.50164M28.985 1.01846V14.363H31.0541V9.80673H33.9219C34.5109 9.83856 35.1002 9.747 35.6518 9.53791C36.2034 9.32882 36.7053 9.00682 37.1253 8.59252C37.5453 8.17822 37.8741 7.68076 38.0907 7.13202C38.3072 6.58328 38.4068 5.99535 38.383 5.4059C38.4122 4.82178 38.3186 4.23804 38.1084 3.69228C37.8982 3.14652 37.576 2.65087 37.1625 2.23726C36.749 1.82365 36.2534 1.50127 35.7078 1.29088C35.1621 1.0805 34.5783 0.986786 33.9942 1.01578L28.985 1.01846ZM31.0541 2.76057H33.4421C33.8095 2.7097 34.1837 2.74157 34.5372 2.85384C34.8907 2.96611 35.2147 3.15596 35.4855 3.4095C35.7562 3.66304 35.9669 3.97387 36.1021 4.31927C36.2373 4.66468 36.2937 5.03593 36.267 5.4059C36.2943 5.77741 36.2381 6.15033 36.1027 6.49736C35.9673 6.84439 35.756 7.15677 35.4843 7.41163C35.2127 7.66649 34.8874 7.85739 34.5325 7.97037C34.1775 8.08335 33.8017 8.11556 33.4327 8.06462H31.0541V2.76057ZM42.1674 14.4729C42.7835 14.4895 43.3928 14.3398 43.9309 14.0393C44.4691 13.7388 44.9163 13.2989 45.2255 12.7656H45.2683V14.363H47.182V7.72156C47.182 5.79452 45.6422 4.5536 43.2689 4.5536C41.0645 4.5536 39.447 5.81194 39.3827 7.54199H41.2494C41.3572 7.11574 41.6157 6.74296 41.9771 6.49264C42.3385 6.24232 42.7784 6.13142 43.2153 6.18046C44.4817 6.18046 45.1933 6.76876 45.1933 7.85959V8.59396L42.6083 8.74136C40.1961 8.88877 38.9016 9.87105 38.9016 11.5837C38.9061 11.995 38.9969 12.4008 39.168 12.7748C39.3392 13.1489 39.5869 13.4828 39.8952 13.7551C40.2035 14.0274 40.5655 14.232 40.9578 14.3556C41.3501 14.4793 41.764 14.5192 42.1728 14.4729H42.1674ZM42.7249 12.8889C41.6206 12.8889 40.9184 12.3529 40.9184 11.5488C40.9184 10.7099 41.5885 10.2262 42.8884 10.1458L45.192 9.99836V10.7542C45.1788 11.0595 45.1036 11.359 44.971 11.6343C44.8383 11.9097 44.651 12.1551 44.4204 12.3557C44.1899 12.5564 43.9209 12.7079 43.6298 12.8012C43.3388 12.8945 43.0318 12.9275 42.7275 12.8983L42.7249 12.8889ZM49.7442 18C51.7651 18 52.7152 17.2295 53.5447 14.8923L57.1844 4.68761H55.0791L52.6401 12.5686H52.5959L50.1623 4.68225H47.986L51.4957 14.4032L51.3081 14.9915C51.244 15.3988 51.0295 15.7672 50.707 16.024C50.3844 16.2808 49.9773 16.4073 49.566 16.3785C49.4025 16.3785 49.0862 16.3611 48.9576 16.345V17.9451C49.2188 17.9797 49.4821 17.9963 49.7456 17.9946L49.7442 18Z" fill="black"/>
</g>
</g>
<defs>
<clipPath id="clip0_5567_6856">
<rect width="70" height="18" fill="white" transform="translate(0.27002)"/>
</clipPath>
<clipPath id="clip1_5567_6856">
<rect width="43.8288" height="18" fill="white" transform="translate(13.3556)"/>
</clipPath>
</defs>
</svg>
