<svg width="14" height="14" viewBox="0 0 14 14" fill="none" xmlns="http://www.w3.org/2000/svg">
<g clip-path="url(#clip0_5567_6965)">
<g clip-path="url(#clip1_5567_6965)">
<g clip-path="url(#clip2_5567_6965)">
<path d="M7 14C10.866 14 14 10.866 14 7C14 3.13401 10.866 0 7 0C3.13401 0 0 3.13401 0 7C0 10.866 3.13401 14 7 14Z" fill="#0052B4"/>
<path d="M7.09361 2.77637L7.32344 3.48337H8.06661L7.46636 3.9197L7.69619 4.6267L7.09477 4.18978L6.49336 4.6267L6.72319 3.9197L6.12061 3.48278H6.86377L7.09361 2.77637Z" fill="#FFDA44"/>
<path d="M4.04096 4.04026L4.70304 4.3751L5.22804 3.8501L5.11137 4.58393L5.77521 4.92401L5.04137 5.04068L4.92412 5.7751L4.58637 5.11185L3.85254 5.22851L4.37754 4.70351L4.04096 4.04026Z" fill="#FFDA44"/>
<path d="M2.77637 7.09302L3.48337 6.86319V6.12061L3.92028 6.72202L4.62728 6.49219L4.18978 7.09302L4.6267 7.69444L3.9197 7.46636L3.48278 8.06602V7.32286L2.77637 7.09302Z" fill="#FFDA44"/>
<path d="M4.04085 10.1471L4.3751 9.48448L3.8501 8.95948L4.58393 9.07615L4.9211 8.41406L5.03776 9.1479L5.7716 9.26456L5.10951 9.60173L5.22618 10.3356L4.70118 9.81056L4.04085 10.1471Z" fill="#FFDA44"/>
<path d="M7.09361 11.412L6.86377 10.705H6.12061L6.72202 10.268L6.49219 9.56104L7.09361 9.99795L7.69502 9.56104L7.46636 10.2669L8.06777 10.7038H7.32286L7.09361 11.412Z" fill="#FFDA44"/>
<path d="M10.1471 10.1472L9.48497 9.81007L8.95997 10.3351L9.07663 9.60124L8.41455 9.26407L9.14838 9.14741L9.26505 8.41357L9.60222 9.07566L10.3361 8.95899L9.81105 9.48399L10.1471 10.1472Z" fill="#FFDA44"/>
<path d="M11.4117 7.09302L10.7047 7.32286V8.06602L10.2666 7.46636L9.55957 7.69619L9.99649 7.09477L9.56074 6.49219L10.2677 6.72202L10.7047 6.12061V6.86377L11.4117 7.09302Z" fill="#FFDA44"/>
<path d="M10.1468 4.04077L9.8091 4.70285L10.3341 5.22785L9.60026 5.11118L9.2631 5.77502L9.14643 5.04118L8.4126 4.92452L9.07468 4.58735L8.95801 3.85352L9.48301 4.37852L10.1468 4.04077Z" fill="#FFDA44"/>
</g>
</g>
</g>
<defs>
<clipPath id="clip0_5567_6965">
<rect width="14" height="14" rx="7" fill="white"/>
</clipPath>
<clipPath id="clip1_5567_6965">
<rect width="14" height="14" fill="white"/>
</clipPath>
<clipPath id="clip2_5567_6965">
<rect width="14" height="14" fill="white"/>
</clipPath>
</defs>
</svg>
